<?xml version="1.0" encoding="utf-8"?>
<!-- Generator: Adobe Illustrator 24.0.3, SVG Export Plug-In . SVG Version: 6.00 Build 0)  -->
<svg version="1.1" id="Layer_1" xmlns="http://www.w3.org/2000/svg" xmlns:xlink="http://www.w3.org/1999/xlink" x="0px" y="0px"
	 viewBox="0 0 828.96 291.06" style="enable-background:new 0 0 828.96 291.06;" xml:space="preserve">
<style type="text/css">
	.st0{fill:#FFFFFF;}
</style>
<rect x="-0.15" y="0.05" class="st0" width="829" height="291"/>
<path d="M0,0c50.39,0,100.61,0,151.19,0c0,97.03,0,193.88,0,291.06c-50.3,0-100.53,0-151.19,0C0,194.18,0,97.21,0,0z M15.21,186.1
	c0.43,0.5,0.86,1,1.29,1.51c1.46-1.02,3.37-1.73,4.3-3.11c4.28-6.31,7.53-7.67,14.77-5.46c2.86,0.87,5.66,1.95,8.49,2.93
	c12.62,4.34,25.37,6.59,38.74,3.62c32.47-7.2,46.93-41.18,28.32-68.63c-6.36-9.39-15.47-16.88-23.1-25.45
	c-6.61-7.42-13.79-14.56-19.09-22.87C62.4,58.38,64.68,47.56,73,40.15c13.54-12.07,39.68-7.41,48.42,8.53
	c3.86,7.04,4.09,14.61,4.05,22.33c-0.01,1.6,1.12,3.2,1.72,4.8c0.93-1.32,2.34-2.52,2.71-3.98c2.31-9.2,4.42-18.45,6.55-27.7
	c1.48-6.41,2.88-12.84,4.32-19.26c-0.4-0.36-0.8-0.72-1.2-1.08c-1.58,0.98-3.53,1.64-4.67,2.98c-5.78,6.88-9.01,7.82-17.42,4.49
	c-2.48-0.98-4.92-2.04-7.4-3.01c-11.53-4.52-23.25-5.25-35.24-1.94c-28.05,7.73-38.4,40.3-19.74,62.53
	c4.17,4.97,8.85,9.5,13.16,14.37c8.16,9.22,16.91,18.03,24.17,27.92c13.43,18.3,2.24,44.14-19.85,47.14
	c-23.78,3.22-41.49-12.38-41.31-36.39c0.03-4.09,0-8.19,0-13.73c-1.85,1.64-3.52,2.38-3.77,3.45
	C23.29,149.74,19.27,167.92,15.21,186.1z"/>
<path d="M554.13,29.07c-3.34,14.55-6.63,29.1-10.13,43.61c-0.22,0.91-1.97,1.45-3.85,2.74c-0.25-4.95-0.42-8.71-0.63-12.47
	c-0.93-16.43-10.89-26.42-27.26-27.41c-22.16-1.34-39.06,8.49-51.9,25.55c-14.12,18.77-21.47,40.11-20.92,63.81
	c0.8,34.26,28.72,49.7,58.53,41.55c12.33-3.37,21.71-11.24,29.71-20.98c1.42-1.73,3.65-2.78,6.04-3.37
	c-11.8,20.12-28.34,33.37-52.16,35.21c-16.35,1.26-32.13-0.99-45.04-12.26c-16.2-14.13-20.83-32.63-18.91-53.31
	c4.01-43.28,43.48-80.95,86.91-83.22c9.92-0.52,19.24,1.69,28.24,5.27c6.3,2.51,11.22,1.35,15.84-3.3c1.17-1.17,3.02-1.66,4.56-2.47
	C553.49,28.37,553.81,28.72,554.13,29.07z"/>
<path d="M569.79,22.29c1.09-1.49,1.61-2.99,2.38-3.13c9.94-1.8,19.92-3.4,30.66-5.18c-8.65,29.97-17.05,59.1-25.46,88.23
	c0.23,0.1,0.45,0.19,0.68,0.29c5.3-7.19,10.28-14.65,16-21.49c4.13-4.93,9.08-9.23,14-13.42c2.21-1.88,5.12-3.18,7.93-4.07
	c10.65-3.4,17.63,2.04,15.7,12.98c-1.87,10.6-5,20.99-7.81,31.42c-2.25,8.35-4.97,16.57-7.17,24.94c-0.46,1.77,0.45,3.9,0.73,5.86
	c1.76-0.63,3.9-0.83,5.21-1.98c2.86-2.5,5.25-5.54,7.96-8.24c0.64-0.64,1.78-0.78,2.69-1.16c0.04,0.98,0.49,2.24,0.05,2.9
	c-4.9,7.23-10.38,14.13-18.63,17.53c-3.13,1.29-7.91,1.53-10.59-0.04c-1.98-1.16-3-6.31-2.35-9.21c2.65-11.83,6.13-23.47,9.28-35.19
	c2.03-7.55,4.22-15.06,5.89-22.69c0.42-1.93-0.25-5.16-1.6-6.12c-1.45-1.02-4.64-0.76-6.48,0.14c-8.68,4.25-14.21,11.85-19.57,19.51
	c-10.46,14.96-19.16,30.79-23.48,48.73c-0.35,1.44-0.96,2.82-1.49,4.35c-4.43,0-8.73,0-13.71,0c1.42-5.13,2.72-10,4.11-14.85
	c9.37-32.62,18.77-65.22,28.12-97.84c3.17-11.06,1.84-12.69-9.53-12.11C572.48,22.51,571.67,22.39,569.79,22.29z"/>
<path d="M343.45,128.37c-5.6,8.14-11.28,16.3-21,20.18c-8.09,3.23-13.46-0.5-11.86-8.92c2.13-11.23,5.6-22.21,8.54-33.29
	c2.22-8.36,4.69-16.65,6.63-25.07c0.49-2.13,0.08-5.94-1.21-6.67c-1.84-1.03-5.49-0.8-7.29,0.44c-4.73,3.27-9.49,6.88-13.15,11.26
	c-13.02,15.61-23.05,32.96-28.42,52.75c-0.74,2.71-1.62,5.39-2.46,8.13c-4.58,0-9,0-13.89,0c3.35-11.51,6.63-22.65,9.83-33.81
	c3.21-11.19,6.5-22.37,9.45-33.63c1.88-7.15-0.51-9.63-7.82-8.89c-0.66,0.07-1.39,0.42-1.96,0.24c-1.05-0.33-2.01-0.95-3-1.45
	c0.81-0.64,1.54-1.68,2.44-1.85c8.01-1.53,16.04-2.9,24.07-4.32c1.46-0.26,2.92-0.48,5.46-0.89c-3.92,13.57-7.68,26.6-11.44,39.63
	c0.23,0.08,0.46,0.16,0.69,0.24c5.4-7.32,10.46-14.94,16.32-21.87c4.25-5.03,9.46-9.29,14.47-13.64c1.7-1.48,3.98-2.46,6.15-3.22
	c11.51-4.03,19.24,1.86,16.64,13.71c-3.53,16.05-8.43,31.8-12.74,47.67c-0.79,2.89-1.88,5.73-2.28,8.67
	c-0.24,1.75,0.62,3.64,0.98,5.47c1.61-0.61,3.59-0.84,4.77-1.92c2.69-2.46,4.91-5.41,7.48-8.01c0.99-1,2.4-1.6,3.61-2.38
	C342.78,127.43,343.12,127.9,343.45,128.37z"/>
<path d="M246.42,127.99c0.07,1.27,0.71,2.94,0.13,3.76c-4.82,6.83-9.99,13.41-18.12,16.61c-9.8,3.86-15.09-0.02-13.86-10.33
	c0.54-4.53,1.81-8.97,2.75-13.45c0.39,0.46,0.77,0.92,1.16,1.38c-5.55,4.74-10.97,9.65-16.7,14.16c-3.5,2.76-7.25,5.38-11.27,7.25
	c-13.09,6.1-24.78-0.78-26.08-15.18c-1.12-12.37,2.39-23.71,8.21-34.43c7.54-13.9,17.4-25.74,32.13-32.3
	c4.48-2,9.97-2.62,14.94-2.39c6.06,0.28,8.93,5.58,12.41,12.23c0.5-13.16,9.34-11.54,17.48-12.54c-1.62,5.88-3.12,11.38-4.66,16.88
	c-4.94,17.61-9.9,35.21-14.84,52.81c-0.31,1.12-0.86,2.29-0.75,3.38c0.13,1.35,0.47,3.29,1.38,3.8c0.93,0.52,2.94,0.03,3.99-0.71
	c4.11-2.85,8.03-5.97,12.02-8.99C246.63,129.28,246.52,128.64,246.42,127.99z M227.78,83.44c0-1.33,0.1-2.67-0.01-3.99
	c-0.89-10.66-8.65-15.03-18.36-10.33c-1.49,0.72-3.02,1.51-4.24,2.6c-16.5,14.69-25.46,33.1-25.93,55.18
	c-0.22,10.22,7.19,14.52,16.7,10.53c1.82-0.76,3.68-1.7,5.17-2.97C216.88,121.07,226.69,104.51,227.78,83.44z"/>
<path d="M679.69,149.61c-18.28-0.11-29.25-10.42-30.09-26.08c-1.6-29.82,28.3-61.21,58.12-61.01c0.67,0,1.34-0.02,2,0.05
	c6.04,0.68,12.36,1.32,15.21,7.7c2.92,6.54,1.03,12.86-3.12,18.28c-8.76,11.47-21.3,16.67-34.79,19.93
	c-5.64,1.36-11.44,2.22-17.21,2.93c-2.75,0.34-3.48,1.53-3.84,4.07c-2.31,16.24,11.05,28.41,26.66,23.24
	c7.74-2.56,14.65-7.57,21.99-11.39c1.14-0.59,2.53-0.73,3.8-1.07c-0.47,1.22-0.6,2.78-1.45,3.59
	C705.8,140.49,693.55,149.05,679.69,149.61z M667.14,107.43c14.59-1.64,27.24-5.51,37.67-14.86c5.3-4.76,8.48-10.55,7.85-17.99
	c-0.37-4.32-2.73-6.59-6.87-7.18c-6.45-0.92-12.27,0.91-17.28,4.8C677.16,81.03,671.06,93.13,667.14,107.43z"/>
<path d="M739.53,134.44c12.2,0,23.18,0.19,34.15-0.07c6.4-0.15,11.57-2.71,14.04-9.28c0.49-1.32,1.95-2.27,2.96-3.4
	c0.51,0.31,1.02,0.62,1.53,0.93c-2.53,7.82-5,15.65-7.68,23.41c-0.24,0.7-1.79,1.36-2.73,1.36c-19.3,0.08-38.6,0.06-59.46,0.06
	c1.7-2.53,2.56-4.32,3.86-5.68c18.53-19.36,37.11-38.67,55.68-57.99c1.8-1.87,3.57-3.78,6.36-6.73c-9.63,0-17.86,0.28-26.07-0.08
	c-9-0.39-17.04,0.53-21.3,10.05c-0.37,0.82-1.91,1.13-2.9,1.67c-0.33-0.28-0.66-0.55-0.99-0.83c2.44-7.17,4.81-14.36,7.39-21.47
	c0.28-0.78,1.72-1.61,2.63-1.61c18.95-0.09,37.91-0.07,56.86-0.07c0.37,0.48,0.73,0.96,1.1,1.44
	C783.4,88.65,761.84,111.15,739.53,134.44z"/>
</svg>
