<?xml version="1.0" encoding="utf-8"?>
<!-- Generator: Adobe Illustrator 24.0.3, SVG Export Plug-In . SVG Version: 6.00 Build 0)  -->
<svg version="1.1" id="Layer_1" xmlns="http://www.w3.org/2000/svg" xmlns:xlink="http://www.w3.org/1999/xlink" x="0px" y="0px"
	 viewBox="0 0 24 24" style="enable-background:new 0 0 24 24;" xml:space="preserve">
<style type="text/css">
	.st0{fill:#878788;}
</style>
<g>
	<path class="st0" d="M21.7,3c-0.8-0.2-1.7-0.1-2.5,0.2c0-0.4,0-0.8,0-1.2H12H4.8c0,0.4,0,0.8,0,1.2C3.9,2.9,3,2.8,2.3,3
		C1.1,3.2,0.3,4,0.1,5.1c-0.3,1.4,0.4,3.1,2.2,4.7C3.6,11,5.4,12,7.4,12.6c0.8,1.1,1.8,1.9,3.1,2.4c-0.2,0.7-0.9,2.6-2.5,3.7H12h3.9
		c-1.6-1.2-2.3-3.1-2.5-3.7c1.3-0.5,2.3-1.4,3.1-2.4c1.9-0.6,3.8-1.7,5.1-2.9c1.7-1.6,2.5-3.2,2.2-4.7C23.6,4,22.8,3.2,21.7,3z
		 M3.4,8.6C2.1,7.5,1.5,6.3,1.7,5.4c0.1-0.5,0.4-0.8,0.9-0.9C3.3,4.4,4.1,4.6,4.9,5C5,6.8,5.4,8.7,6.1,10.4C5.1,9.9,4.2,9.3,3.4,8.6
		z M20.6,8.6c-0.8,0.7-1.7,1.3-2.7,1.8c0.7-1.7,1.1-3.6,1.2-5.4c0.7-0.4,1.6-0.6,2.2-0.5c0.5,0.1,0.8,0.4,0.9,0.9
		C22.4,6.3,21.8,7.5,20.6,8.6z"/>
	<rect x="6.9" y="19.8" class="st0" width="10.1" height="2.1"/>
</g>
</svg>
