<?xml version="1.0" encoding="utf-8"?>
<!-- Generator: Adobe Illustrator 24.0.3, SVG Export Plug-In . SVG Version: 6.00 Build 0)  -->
<svg version="1.1" id="Layer_1" xmlns="http://www.w3.org/2000/svg" xmlns:xlink="http://www.w3.org/1999/xlink" x="0px" y="0px"
	 viewBox="0 0 24 24" style="enable-background:new 0 0 24 24;" xml:space="preserve">
<style type="text/css">
	.st0{fill:#878788;}
</style>
<g>
	<g>
		<ellipse class="st0" cx="12" cy="6.3" rx="5.8" ry="5.7"/>
		<g>
			<path class="st0" d="M17.3,6.3c0,2.1-1.4,4.1-3.5,4.8c-2.1,0.7-4.5,0.1-5.9-1.6C6.5,8,6.3,5.5,7.5,3.7c1.1-1.8,3.4-2.8,5.6-2.4
				C15.5,1.8,17.3,3.9,17.3,6.3c0,0.7,1.1,0.7,1.1,0c0-2.6-1.7-4.9-4.2-5.8s-5.4-0.1-7,1.9c-1.7,2-2,4.9-0.6,7.2
				c1.4,2.2,4.1,3.4,6.7,2.9c2.5-0.5,4.6-2.6,5-5.1c0.1-0.3,0.1-0.7,0.1-1C18.4,5.7,17.3,5.7,17.3,6.3z"/>
		</g>
	</g>
	<g>
		<path class="st0" d="M21.9,23.3H2.1v-4.1c0-2.7,2.2-4.8,5-4.8H17c2.7,0,5,2.2,5,4.8L21.9,23.3L21.9,23.3z"/>
		<g>
			<path class="st0" d="M21.9,22.8c-0.7,0-1.3,0-2,0c-1.6,0-3.2,0-4.7,0c-1.9,0-3.8,0-5.7,0c-1.6,0-3.3,0-4.9,0c-0.5,0-1.1,0-1.6,0
				c-0.3,0-0.5,0-0.8,0l0,0c0.2,0.2,0.4,0.4,0.5,0.5c0-0.9,0-1.7,0-2.6c0-1-0.1-2,0.3-3c0.5-1.5,1.9-2.5,3.5-2.8
				c0.6-0.1,1.3-0.1,1.9-0.1c2.3,0,4.6,0,6.9,0c0.6,0,1.2,0,1.9,0c1.5,0,2.8,0.7,3.7,1.9c0.4,0.6,0.7,1.4,0.8,2.2c0,0.3,0,0.7,0,1
				c0,1.1,0,2.1,0,3.2c0,0.1,0,0.2,0,0.2c0,0.7,1.1,0.7,1.1,0c0-0.9,0-1.8,0-2.8c0-1.1,0.1-2.2-0.4-3.3c-0.7-1.7-2.2-3-4-3.3
				c-0.8-0.2-1.5-0.1-2.3-0.1c-2.4,0-4.7,0-7.1,0c-0.6,0-1.2,0-1.8,0c-1.8,0-3.5,0.9-4.5,2.3c-0.5,0.7-0.8,1.6-0.9,2.5
				c0,0.4,0,0.8,0,1.1c0,1.1,0,2.2,0,3.3c0,0.1,0,0.2,0,0.3c0,0.3,0.2,0.5,0.5,0.5c0.7,0,1.3,0,2,0c1.6,0,3.2,0,4.7,0
				c1.9,0,3.8,0,5.7,0c1.6,0,3.3,0,4.9,0c0.8,0,1.6,0,2.4,0l0,0C22.6,23.9,22.6,22.8,21.9,22.8z"/>
		</g>
	</g>
</g>
</svg>
