<?xml version="1.0" encoding="utf-8"?>
<!-- Generator: Adobe Illustrator 24.0.3, SVG Export Plug-In . SVG Version: 6.00 Build 0)  -->
<svg version="1.1" id="Layer_1" xmlns="http://www.w3.org/2000/svg" xmlns:xlink="http://www.w3.org/1999/xlink" x="0px" y="0px"
	 viewBox="0 0 24 24" style="enable-background:new 0 0 24 24;" xml:space="preserve">
<style type="text/css">
	.st0{fill:#878788;}
</style>
<path class="st0" d="M20.2,5.5h-0.4v7.2c0,2.4-1.9,4.3-4.2,4.3H8.8l-2.7,1.8c0.6,0.7,1.4,1.1,2.3,1.1h7c0.1,0,0.1,0.1,0.2,0.1
	l3.3,2.2c0.6,0.4,1.1,0.1,1.1-0.6v-1.7h0.1c1.7,0,3.1-1.4,3.1-3.2v-8C23.3,7,21.9,5.5,20.2,5.5z"/>
<path class="st0" d="M15.6,1.6H3.8C2.1,1.6,0.7,3,0.7,4.8v7.9c0,1.8,1.4,3.2,3.1,3.2h0.1v1.7c0,0.7,0.5,1,1.1,0.6L8.3,16
	c0.1,0.1,0.2,0,0.2,0h7c1.7,0,3.1-1.4,3.1-3.2v-8C18.7,3.1,17.3,1.6,15.6,1.6z M7.7,14c-0.7,0-1.2-0.6-1.2-1.3
	c0-0.8,0.5-1.3,1.2-1.3c0.8,0,1.2,0.5,1.2,1.3C8.9,13.4,8.4,14,7.7,14z M11,8.2c-0.5,0.6-0.7,1.1-0.7,1.8v0.3H8.5V9.9
	c0-0.7,0.2-1.5,0.8-2.2c0.4-0.5,0.8-1,0.8-1.5s-0.3-0.8-1-0.9c-0.5,0-1,0.2-1.4,0.4L7.2,4.1c0.5-0.3,1.3-0.6,2.3-0.6
	c1.8,0,2.7,1,2.7,2.2C12.2,6.8,11.5,7.6,11,8.2z"/>
</svg>
