<?xml version="1.0" encoding="utf-8"?>
<!-- Generator: Adobe Illustrator 24.0.3, SVG Export Plug-In . SVG Version: 6.00 Build 0)  -->
<svg version="1.1" id="Layer_1" xmlns="http://www.w3.org/2000/svg" xmlns:xlink="http://www.w3.org/1999/xlink" x="0px" y="0px"
	 viewBox="0 0 24 24" style="enable-background:new 0 0 24 24;" xml:space="preserve">
<style type="text/css">
	.st0{fill:#878788;}
</style>
<g transform="translate(0,-952.36218)">
	<path class="st0" d="M12,953.1c-0.3,0-0.5,0.2-0.5,0.5v1.9c0,0.3,0.2,0.5,0.5,0.5s0.5-0.2,0.5-0.5v-1.9
		C12.5,953.3,12.3,953.1,12,953.1z M5.4,955.9c-0.1,0-0.2,0-0.3,0.1c-0.2,0.2-0.2,0.5,0,0.7l1.3,1.3c0.2,0.2,0.5,0.2,0.7,0
		s0.2-0.5,0-0.7L5.7,956C5.6,955.9,5.5,955.9,5.4,955.9z M18.6,955.9c-0.1,0-0.2,0-0.3,0.1l-1.3,1.3c-0.2,0.2-0.2,0.5,0,0.7
		s0.5,0.2,0.7,0l1.3-1.3c0.2-0.2,0.2-0.5,0-0.7C18.9,955.9,18.7,955.9,18.6,955.9z M12,957.3c-2.9,0-5.6,2.2-5.6,5.4
		c0,4.1,3,4.9,3,7.8h5.2c0-2.8,3-3.7,3-7.8C17.6,959.6,14.9,957.3,12,957.3L12,957.3z M10.6,958.8L10.6,958.8L10.6,958.8
		c0.3,0,0.5,0.2,0.5,0.5c0,0.2-0.1,0.4-0.3,0.4c-1.1,0.4-2,1.4-2.2,2.7c0,0.3-0.3,0.4-0.5,0.4c-0.3,0-0.4-0.3-0.4-0.5
		c0.3-1.6,1.4-2.8,2.8-3.4C10.5,958.8,10.5,958.8,10.6,958.8L10.6,958.8z M2.6,962.5c-0.3,0-0.5,0.2-0.5,0.5s0.2,0.5,0.5,0.5h1.9
		c0.3,0,0.5-0.2,0.5-0.5s-0.2-0.5-0.5-0.5H2.6z M19.5,962.5c-0.3,0-0.5,0.2-0.5,0.5s0.2,0.5,0.5,0.5h1.9c0.3,0,0.5-0.2,0.5-0.5
		s-0.2-0.5-0.5-0.5H19.5z M9.4,971.4v0.9h5.2v-0.9H9.4z M9.4,973.3c0,0.5,0.4,0.9,0.9,0.9h3.3c0.5,0,0.9-0.4,0.9-0.9H9.4z
		 M11.1,974.7c0,0.5,0.4,0.9,0.9,0.9s0.9-0.4,0.9-0.9H11.1z"/>
</g>
</svg>
