<?xml version="1.0" encoding="utf-8"?>
<!-- Generator: Adobe Illustrator 24.0.3, SVG Export Plug-In . SVG Version: 6.00 Build 0)  -->
<svg version="1.1" id="Layer_1" xmlns="http://www.w3.org/2000/svg" xmlns:xlink="http://www.w3.org/1999/xlink" x="0px" y="0px"
	 viewBox="0 0 100 100" style="enable-background:new 0 0 100 100;" xml:space="preserve">
<style type="text/css">
	.st0{fill:#1F7500;}
</style>
<g>
	<path class="st0" d="M80.9,35.9c-0.1-0.2-0.4-0.5-0.7-0.7c-0.2-0.1-0.3-0.2-0.4-0.3c-1.1-0.5-1.2-2-1.3-2.4c0-0.5-0.1-0.9-0.3-1.3
		c-0.4-0.9-1-1.4-1.6-1.9c-0.2-0.2-0.4-0.3-0.5-0.5c-0.6-0.6-1.1-1.4-1.6-2.2c-0.3-0.5-0.6-1-1-1.5c-1.8-2.5-4.6-3.9-7.1-3.7
		c-1,0.1-2.1,0.3-3.2,0.8c2,1,3.9,2.6,5.4,4.6c0.9,1.2,2.1,2.4,3.2,3.6l0.1,0.1c1.2,1.2,2.5,2.5,3.7,4.1c1.4,1.7,2.1,4.1,2.1,6.6
		c0,1-0.1,2-0.4,2.9c-0.7,2.9-3,5.4-6.1,6.8l-0.8,0.3c-0.4,0.2-0.8,0.3-1.1,0.5c0.8,1.3,1,2.8,0.7,4.3c-0.4,1.6-1.4,2.8-2.9,3.5
		c-0.8,0.3-1.6,0.7-2.3,0.9c-2,0.7-3.7,1.4-4.9,2.5c-0.9,0.9-1.6,2.2-1.7,3.5c-0.1,0.8,0,1.7,0.2,2.6l5.7-1.1c0,0,0.1,0,0.1,0
		c3.7-1.4,6.9-4,9.1-7.3c0.6-0.9,1.1-1.9,1.7-2.8c1.1-1.9,2-3.7,3.6-5c0.1-0.1,0.3-0.2,0.4-0.4c1-0.8,2.2-1.8,2.2-3.4
		c0-0.5-0.1-0.9-0.2-1.2c0-0.2-0.1-0.3-0.1-0.5c-0.1-0.9,0.2-1.9,0.6-2.9c0.2-0.6,0.4-1.2,0.6-1.8C82.6,40.1,82.2,37.7,80.9,35.9z"
		/>
	<path class="st0" d="M40.6,59L40.6,59c-0.7-2.5-1.2-4.4-2.4-6l0-0.1c-0.1-0.2-0.2-0.3-0.3-0.5c-0.9-1.3-2.4-3.2-1.8-5.7
		c0.2-0.7,0.5-1.2,0.7-1.6c0.1-0.2,0.2-0.3,0.2-0.4c0.3-0.6,0.2-1.5,0.1-2.5l0-0.2c-0.1-0.7-0.1-1.4-0.1-2.2c0.1-3,1.5-5.9,3.8-7.7
		c0.4-0.3,0.8-0.6,1.4-0.8c0.3-0.1,0.7-0.2,1-0.3c0.2,0,0.6-0.5,0.8-1.1c0.2-0.7,0.6-1.3,1-1.9c0.9-1.1,2.1-1.7,2.9-2.1
		c0.2-0.1,0.4-0.2,0.7-0.3c0.7-0.4,1.3-1,2.1-1.7c0.6-0.5,1.1-1,1.7-1.5c0.3-0.2,0.7-0.5,1-0.7c-0.7-0.5-1.3-1-1.9-1.6
		c-1.9-1.8-4.3-3.1-6.6-3.4c-2.9-0.5-6.2,0.8-8.6,3.3c-0.5,0.5-0.9,1.1-1.3,1.6c-0.7,0.8-1.3,1.6-2.1,2.3c-0.2,0.2-0.5,0.4-0.7,0.5
		c-0.7,0.5-1.5,1-2,1.9c-0.3,0.4-0.4,0.9-0.5,1.4c-0.1,0.5-0.4,2.2-1.8,2.7c-0.2,0.1-0.4,0.2-0.6,0.2c-0.3,0.2-0.6,0.5-0.8,0.7
		c-1.6,1.8-2.4,4.4-2.1,6.8c0.1,0.7,0.3,1.4,0.5,2.1c0.3,1.2,0.6,2.4,0.3,3.4c0,0.2-0.1,0.4-0.2,0.5c-0.1,0.4-0.3,0.8-0.3,1.3
		c-0.1,1.7,1.2,3,2.2,4c0.2,0.2,0.3,0.3,0.5,0.5c1.6,1.6,2.6,3.8,3.6,6c0.5,1.1,1,2.3,1.6,3.4c2.2,3.9,5.6,7.1,9.7,9.1
		c0.1,0.1,0.3,0.1,0.4,0.1c0,0,0.1,0,0.1,0l1.9-0.3c-1.2-1.7-2.3-3.6-3-5.6C41.3,61.4,40.9,60.2,40.6,59z"/>
	<path class="st0" d="M56.7,61.5c0.2-1.6,1-3.1,2.1-4.2c1.4-1.3,3.2-1.9,5.1-2.6c0.7-0.2,1.4-0.5,2.1-0.8c0.9-0.4,1.5-1.1,1.7-2
		c0.2-1,0-2.1-0.7-3c0-0.1-0.1-0.1-0.1-0.2c-0.2-0.5,0.1-1.1,0.6-1.5c0.4-0.4,1-0.6,1.6-0.8c0.2-0.1,0.4-0.2,0.7-0.3
		c2.4-1.1,4.1-2.9,4.7-5c0.2-0.7,0.3-1.5,0.3-2.2c0-1.8-0.6-3.6-1.6-4.9c-1.1-1.4-2.3-2.5-3.4-3.6c-1.2-1.1-2.2-2.2-3.1-3.4
		c-1.5-2-3.4-3.4-5.5-4.1c-2.6-0.9-5.8-0.2-8.3,1.7c-0.5,0.4-1,0.8-1.5,1.3c-0.7,0.7-1.4,1.3-2.2,1.8c-0.2,0.1-0.5,0.2-0.7,0.4
		c-0.7,0.3-1.5,0.7-2.1,1.5c-0.3,0.3-0.5,0.7-0.6,1.2c-0.1,0.4-0.7,2-2.1,2.2c-0.2,0-0.4,0.1-0.5,0.1c-0.3,0.1-0.6,0.3-0.8,0.5
		c-1.8,1.4-2.8,3.7-2.9,5.9c0,0.7,0,1.3,0.1,1.9c0.1,1.2,0.2,2.3-0.2,3.2c-0.1,0.2-0.1,0.3-0.2,0.5c-0.2,0.3-0.4,0.7-0.5,1.2
		c-0.4,1.6,0.6,2.9,1.4,3.9c0.1,0.2,0.2,0.3,0.4,0.5c1.2,1.7,1.8,3.8,2.4,6c0.3,1.1,0.6,2.2,1,3.3c1.4,3.9,4,7.4,7.5,9.8
		c0.1,0.1,0.3,0.2,0.5,0.2h1.9c-1.2-3.4-4-11.9-3.9-18.9c0-0.1,0-0.3,0-0.4c-3.6-0.8-4.2-4.7-4-6.8c0-0.5,0.4-0.8,0.9-0.7
		c0.5,0,0.8,0.4,0.7,0.9c0,0.2-0.3,4.1,2.6,5c0.4-1.7,1.2-3.3,2.2-4.9c0,0,0,0,0,0c1.1-1.7,2.5-3.3,3.8-4.6
		c-0.1-0.1-0.2-0.3-0.3-0.4c-0.9-1.8,0.4-4.9,0.7-5.5c0.2-0.4,0.7-0.6,1.1-0.4c0.4,0.2,0.6,0.7,0.4,1.1c-0.6,1.2-1.2,3.3-0.8,4.1
		c0,0,0,0,0,0.1c2.1-2,3.9-3.3,4-3.4c0.4-0.3,0.9-0.2,1.2,0.2c0.3,0.4,0.2,0.9-0.2,1.2c-0.1,0-4.6,3.4-7.8,7.6
		c3.9,0.3,5.5-1.2,5.5-1.2c0.3-0.3,0.8-0.3,1.2,0c0.3,0.3,0.3,0.8,0,1.2c-0.1,0.1-1.7,1.8-5.6,1.8c-0.7,0-1.4-0.1-2.2-0.2
		c-1.2,1.8-2,3.8-2,5.6c0,1.7,0.2,3.6,0.5,5.5c1-0.7,1.1-1.7,1.1-1.7c0-0.5,0.5-0.8,0.9-0.7c0.5,0,0.8,0.5,0.7,0.9
		c0,0.1-0.3,2.2-2.4,3.2c1,5.1,2.6,9.8,3.3,11.7h2.8c0.3,0,0.6-0.1,0.7-0.4c0.1-0.2,0.2-0.5,0-0.8C57.4,66.5,56.4,64,56.7,61.5z"/>
</g>
<path class="st0" d="M91,54.1c-0.4-0.2-1.8,0.6-2.4,0.8c-0.7,0.2-2,0-2.8,0.5c-0.5,0.3-1.2,1.3-1.6,1.2c-6.3-0.6-15.4-2.7-15.4-2.7
	v5.3c0,0,9.1,0.8,15.2,1.6c0.6,0.1,0.4,0.8,2.1,1.5c0.5,0.2,1.7,0.2,2.2,0.5c0.6,0.2,1.7,1,2.4,1.3c0.3,0.2,1.3,0.6,1.5,0.3
	c0.2-0.2,0.1-0.5-0.1-0.7c-0.3-0.3-1.3-0.8-1.9-1.2c-0.2-0.1-0.9-0.9-0.7-0.9c1.3,0.1,3.3,1,4.5,1.3c0.2,0.1,0.8,0.1,0.9-0.3
	c0.1-0.2,0-0.6-0.2-0.7c-1-0.4-3.1-1-4.4-1.5c-0.1,0,0-0.2,0.1-0.2c0.9,0,4,0.8,4.9,0.8c0.2,0,0.6-0.1,0.7-0.5
	c0.1-0.2-0.2-0.6-0.8-0.7c-1.1-0.3-3.4-0.6-4.5-0.9c-0.1,0-0.1-0.2,0-0.2c1.1-0.1,3.1,0.1,4.1,0.1c0.3,0,0.6-0.3,0.6-0.5
	c0-0.2-0.1-0.6-0.5-0.8c-1.5-0.4-4.3-0.3-5.7-0.6c-0.2-0.1-0.9-0.2-0.8-0.5c0.1-0.3,1.4-0.3,1.9-0.6c0.3-0.1,0.8-0.6,0.9-1
	C91.4,54.7,91.4,54.3,91,54.1z"/>
<path class="st0" d="M5.9,34.2c0.2,0.3,2,0.5,2.6,0.6c0.7,0.2,2,0.9,2.9,1c0.8,0,1.3-0.4,1.6-0.2c5.1,3.7,16.5,12.7,16.5,12.7
	l4.1-3.8c0,0-13.5-8.5-18.3-12.2c-0.5-0.3,0-0.9-1.1-2.3c-0.3-0.4-1.4-1-1.7-1.5c-0.4-0.6-1-1.6-1.4-2.2c-0.2-0.3-0.6-1.1-1.1-1.2
	c-0.3,0-0.4,0.3-0.3,0.6c0.1,0.4,0.7,1.3,1,1.9c0.1,0.2,0.3,0.6,0.3,0.9c0,0.2-0.1,0.4-0.1,0.3c-1-0.7-2.3-2.6-3.2-3.4
	c-0.2-0.2-0.4-0.5-0.9-0.2c-0.2,0.1-0.3,0.4-0.2,0.7c0.7,0.9,2.1,2.4,3,3.4c0,0-0.1,0.2-0.2,0.2c-0.8-0.4-3.1-2.5-3.9-3
	c-0.2-0.1-0.5-0.3-0.8,0c-0.2,0.2-0.1,0.6,0.3,1c0.8,0.9,2.6,2.2,3.5,3c0,0,0,0.2-0.1,0.2c-1-0.4-2.6-1.6-3.5-2.2
	c-0.2-0.2-0.6-0.1-0.8,0.1c-0.1,0.2-0.3,0.6,0,0.9c1.1,1.1,3.6,2.4,4.6,3.3c0.2,0.2,0.6,0.7,0.5,0.8c-0.2,0.1-1.3-0.4-2-0.5
	c-0.4-0.1-0.9,0-1.3,0.3C6,33.5,5.7,33.8,5.9,34.2z"/>
<path class="st0" d="M22.1,21.7c-0.5-0.9-1.6-1.2-2.5-0.8c-0.8,0.3-1.2,1.1-1.2,1.9c-0.6-0.5-1.4-0.7-2.1-0.3
	c-0.9,0.4-1.4,1.5-1,2.4c0,0.1,0.1,0.1,0.1,0.2c1,2.2,4.1,2,5.6,3.1l0,0c0.1-1.8,2.3-4.1,1.3-6.2C22.2,21.8,22.2,21.8,22.1,21.7z"/>
<path class="st0" d="M78.3,20.1c0.2-0.4,0.1-0.8-0.3-1c-0.3-0.2-0.6-0.1-0.9,0.1c0.1-0.3-0.1-0.6-0.4-0.8c-0.3-0.2-0.8-0.1-1.1,0.2
	l-0.1,0.1c-0.5,0.9,0.3,1.9,0.3,2.7l0,0c0.6-0.4,1.9-0.2,2.4-1C78.3,20.1,78.3,20.1,78.3,20.1z"/>
<path class="st0" d="M32,17.5c-0.4-0.6-1.1-0.8-1.7-0.6c-0.5,0.2-0.8,0.8-0.8,1.3c-0.4-0.4-1-0.5-1.5-0.2c-0.6,0.3-1,1-0.7,1.7
	c0,0,0,0.1,0,0.1c0.7,1.5,2.9,1.4,3.9,2.1l0,0c0.1-1.2,1.6-2.8,0.9-4.3C32.1,17.6,32.1,17.5,32,17.5z"/>
<path class="st0" d="M52.3,97.6h-2.6c-0.5,0-0.8-0.2-1-0.5c-0.2-0.3-0.1-0.8,0.2-1.1l0.3-0.4c0,0,0.1-0.2,0.1-0.4
	c0.1-0.4,0.2-0.8,0.3-1c-0.1-0.5-0.2-1.1-0.4-1.8c-0.3-1.3-0.7-2.9-0.7-4.6c0-1,0.3-1.6,0.6-2.2c0.3-0.5,0.5-1,0.5-2
	c0-1.6-0.2-2.6-0.4-3.9c-0.3-1.6-0.6-6.5-0.6-6.5s0.2-0.5,0.5-0.5h5.2c0.3,0,0.5,0.2,0.5,0.5v4.7c0,1.7-0.3,2.6-0.6,3.5
	c-0.2,0.8-0.5,1.5-0.5,2.8v3.1c0,0.8-0.6,4.7-0.9,7.1c0.1,0.2,0.1,0.5,0.2,1c0,0.2,0.1,0.4,0.1,0.4l0.1,0.2c0.2,0.4,0.2,0.8,0,1.2
	C53.2,97.4,52.8,97.6,52.3,97.6z M49.7,96.6C49.7,96.6,49.7,96.6,49.7,96.6C49.7,96.6,49.7,96.6,49.7,96.6z"/>
<path class="st0" d="M60.6,97.6H58c-0.5,0-0.8-0.2-1-0.5c-0.2-0.3-0.2-0.8,0-1.2l0.1-0.2c0,0,0-0.2,0.1-0.4c0.1-0.5,0.1-0.8,0.2-1
	C57,92,56.4,88,56.4,87.2v-3.1c0-1.3-0.2-2-0.5-2.8c-0.3-0.9-0.6-1.8-0.6-3.5v-4.7c0-0.3,0.2-0.5,0.5-0.5h5.2c0.3,0,0.5,0.2,0.5,0.5
	c0,3.2-0.3,5-0.6,6.5c-0.2,1.2-0.4,2.3-0.4,3.9c0,0.9,0.2,1.4,0.5,2c0.3,0.5,0.6,1.1,0.6,2.2c0,1.7-0.4,3.3-0.7,4.6
	c-0.2,0.7-0.3,1.3-0.4,1.8c0.1,0.2,0.2,0.5,0.3,1c0.1,0.2,0.1,0.4,0.1,0.4l0.3,0.4c0.3,0.4,0.3,0.8,0.2,1.1
	C61.4,97.4,61.1,97.6,60.6,97.6L60.6,97.6z M57.8,96.6"/>
<polygon class="st0" points="42.3,68.5 47,74.2 63,74.2 68.7,65.3 58.3,66.3 49.9,63.7 41.1,66.7 "/>
</svg>
