<?xml version="1.0" encoding="utf-8"?>
<!-- Generator: Adobe Illustrator 24.0.3, SVG Export Plug-In . SVG Version: 6.00 Build 0)  -->
<svg version="1.1" id="Layer_1" xmlns="http://www.w3.org/2000/svg" xmlns:xlink="http://www.w3.org/1999/xlink" x="0px" y="0px"
	 viewBox="0 0 72 72" style="enable-background:new 0 0 72 72;" xml:space="preserve">
<style type="text/css">
	.st0{fill:#E3A82B;}
	.st1{opacity:0.64;fill:#FFFFFF;}
	.st2{fill:#FFFFFF;}
</style>
<path class="st0" d="M11.7,28.5C11.7,28.5,11.7,28.5,11.7,28.5C11.7,28.5,11.7,28.5,11.7,28.5l0.6,4.6c0,0,0,0,0,0c0,0,0,0,0,0
	l1.2,4.5c0,0,0,0,0,0c0,0,0,0,0,0l1.8,4.3c0,0,0,0,0,0c0,0,0,0,0,0l2.3,4c0,0,0,0,0,0c0,0,0,0,0,0l2.8,3.7c0,0,0,0,0,0c0,0,0,0,0,0
	l3.2,3.3c0,0,0,0,0,0s0,0,0,0l3.6,2.9c0,0,0,0,0,0c0,0,0,0,0,0l3.9,2.4c0,0,0,0,0,0c0,0,0,0,0,0l4.2,1.9c0,0,0.1,0,0.1,0l0,0l0,0
	c0,0,0.1,0,0.1,0l4.2-1.9c0,0,0,0,0,0c0,0,0,0,0,0l3.9-2.4c0,0,0,0,0,0c0,0,0,0,0,0l3.5-2.9c0,0,0,0,0,0c0,0,0,0,0,0l3.1-3.4
	c0,0,0,0,0,0c0,0,0,0,0,0l2.7-3.7c0,0,0,0,0,0c0,0,0,0,0,0l2.2-4.1c0,0,0,0,0,0c0,0,0,0,0,0l1.6-4.3c0,0,0,0,0,0c0,0,0,0,0,0l1-4.5
	c0,0,0,0,0,0c0,0,0,0,0,0l0.4-4.6c0,0,0,0,0,0c0,0,0,0,0,0l-0.2-4.6c0,0,0,0,0,0c0,0,0,0,0,0l-0.7-4.5c0,0,0,0,0,0c0,0,0,0,0,0
	l-1.3-4.4c0,0,0,0,0,0c0,0,0,0,0-0.1c0,0,0,0,0-0.1c0,0,0,0,0,0c0,0,0,0-0.1-0.1c0,0,0,0,0,0l-3.3-1.5c0,0,0,0,0,0c0,0,0,0,0,0
	l-3.4-1.3c0,0,0,0,0,0c0,0,0,0,0,0l-3.5-1c0,0,0,0,0,0c0,0,0,0,0,0l-3.6-0.7c0,0,0,0,0,0c0,0,0,0,0,0l-3.6-0.4c0,0,0,0,0,0
	c0,0,0,0,0,0l-3.7-0.1c0,0,0,0,0,0c0,0,0,0,0,0l-3.7,0.1c0,0,0,0,0,0c0,0,0,0,0,0l-3.6,0.4c0,0,0,0,0,0c0,0,0,0,0,0l-3.6,0.7
	c0,0,0,0,0,0c0,0,0,0,0,0l-3.5,1c0,0,0,0,0,0c0,0,0,0,0,0l-3.4,1.3c0,0,0,0,0,0c0,0,0,0,0,0l-3.3,1.5c0,0,0,0,0,0c0,0,0,0-0.1,0
	c0,0,0,0-0.1,0c0,0,0,0,0,0c0,0,0,0,0,0.1c0,0,0,0,0,0l-1.1,4.5c0,0,0,0,0,0c0,0,0,0,0,0l-0.5,4.6c0,0,0,0,0,0s0,0,0,0L11.7,28.5z"
	/>
<path class="st1" d="M7,28.9L7.7,34c0,0,0,0.1,0,0.1l1.3,5c0,0,0,0.1,0,0.1l2,4.8c0,0,0,0.1,0,0.1l2.5,4.5c0,0,0,0,0,0.1l3.1,4.1
	c0,0,0,0,0.1,0.1l3.6,3.7c0,0,0,0,0.1,0.1l4,3.3c0,0,0,0,0.1,0l4.4,2.7c0,0,0,0,0.1,0l6.3,2.9c0.1,0,0.2,0.1,0.3,0.1s0.2,0,0.3-0.1
	l6.3-2.9c0,0,0.1,0,0.1,0l4.4-2.8c0,0,0,0,0.1-0.1l4-3.3c0,0,0,0,0.1-0.1l3.5-3.8c0,0,0,0,0.1-0.1l3-4.2c0,0,0,0,0-0.1l2.4-4.6
	c0,0,0-0.1,0-0.1l1.8-4.8c0,0,0-0.1,0-0.1l1.2-5c0,0,0-0.1,0-0.1l0.5-5.1c0,0,0-0.1,0-0.1l-0.2-5.2c0,0,0-0.1,0-0.1l-0.8-5.1
	c0,0,0-0.1,0-0.1l-2-6.5c-0.1-0.2-0.2-0.3-0.4-0.4l-5.3-2.5l-3.8-1.4l-3.9-1.1l-4-0.8l-4-0.5l-4.1-0.2l-4.1,0.2l-4,0.5l-4,0.8
	l-3.9,1.1l-3.8,1.4l-5.4,2.5c-0.2,0.1-0.3,0.3-0.4,0.5l-1.6,6.8c0,0,0,0.1,0,0.1l-0.6,5.1c0,0,0,0.1,0,0.1L7,28.9
	C7,28.9,7,28.9,7,28.9z M8.9,18.7l1.5-6.4l5-2.3l3.7-1.4L23,7.4l3.9-0.8l3.9-0.5l4-0.2l4,0.2l3.9,0.5l3.9,0.8l3.8,1.1L54,9.9l5,2.3
	l1.9,6.2l0.8,5l0.2,5.1l-0.5,5l-1.1,4.9l-1.8,4.7l-2.4,4.5l-2.9,4.1l-3.5,3.7l-3.9,3.2l-4.3,2.7l-5.9,2.7l-5.9-2.7l-4.3-2.7
	l-3.9-3.2l-3.5-3.7l-3-4.1l-2.5-4.4l-1.9-4.7l-1.3-4.9l-0.7-5l-0.1-5.1L8.9,18.7z"/>
<g>
	<path class="st2" d="M18.8,14.5c-0.6-0.6-1.5-0.5-1.8,0.8c-0.2,1-1,5,2.4,10c5.4,7.9,11.6,10.6,14.6,10.6c2.3,0,2.8,1.2,4.5,3.6
		c3.9,5.5,8.3,12.2,12,12.5c0.8,0.1,1.6-0.2,2.2-0.7c1-0.9,1.2-2.3-0.7-4.1L18.8,14.5z"/>
	<path class="st2" d="M54.3,20.7L54.3,20.7c-0.3-0.3-0.8-0.3-1.1,0l-6.9,6.7c-0.2,0.3-0.7,0.4-1,0.2c-0.3-0.2-0.5-0.7-0.2-1
		c0.1-0.1,0.1-0.2,0.2-0.2l6.9-6.7c0.3-0.3,0.3-0.8,0-1.1s-0.8-0.3-1.1,0c0,0,0,0,0,0l-6.9,6.7c-0.3,0.3-0.8,0.4-1.2,0.1
		c-0.3-0.4-0.2-0.9,0.1-1.1l6.9-6.7c0.3-0.3,0.3-0.8,0-1.1s-0.8-0.3-1.1,0c0,0,0,0,0,0L42,23.2c-0.3,0.3-0.8,0.4-1.2,0.1
		c-0.3-0.4-0.2-0.9,0.1-1.1l6.9-6.7c0.3-0.3,0.3-0.8,0-1.1c0,0,0,0,0,0l0,0c-0.3-0.3-0.7-0.3-1.1-0.1l-4.2,3.4
		c-4.4,3.5-5.7,5.4-5.7,8.3c0,1.1-0.2,2.2-0.6,3.1l3,3c1-0.4,2.1-0.6,3.2-0.6c3,0,4.9-1.3,8.5-5.6l3.4-4.1
		C54.6,21.5,54.5,21,54.3,20.7z"/>
	<path class="st2" d="M16.9,47.3c-1.4,1.8-1.2,3-0.3,4c1,1,2.2,1.1,4.1-0.3c5.4-3.9,9.1-9,12.9-13.5c-1.7-0.2-3.3-0.7-4.8-1.4
		C24.7,39.4,20.4,42.8,16.9,47.3z"/>
</g>
</svg>
